<svg version="1" xmlns="http://www.w3.org/2000/svg" width="413.333" height="413.333" viewBox="0 0 310.000000 310.000000"><path d="M161 62c0 1.1-3 6.3-6.7 11.7-9.1 13.4-11.2 18.8-10.9 28.3.2 5.5.9 9.1 2.9 13.5 1.4 3.3 2.7 5.7 2.8 5.2.1-.4.2-1 .3-1.5.4-2 10-27.1 10.3-26.8.2.2-1.9 8.6-4.7 18.7-5.7 20.4-7.6 28.4-8.5 34.4-.3 2.2-.8 6-1.2 8.5-.4 2.5-.7 8.4-.7 13.2 0 4.9-.3 8.8-.7 8.8-.3 0-1.2-.7-1.9-1.5-1.8-2.2-25-17.7-42-28-15.9-9.7-18-11.1-29-20-12.6-10.1-14.6-12.8-3-4 5.9 4.4 15 10.6 21.4 14.5l3.9 2.4-.7-3c-2.8-11-10.8-18.5-29.9-27.9-4.3-2.1-8.9-4.9-10.3-6.2-1.4-1.3-2.7-2.3-3-2.3-1.1 0 0 14.7 1.3 19.5 2.3 7.7 4.3 11.4 8.9 16.1 7.2 7.2 16.2 10.8 28.4 11.3 6.2.2 6.8.5 14 5.9 9.8 7.4 23.5 21.1 28.9 28.9 3.7 5.4 5.1 6.5 9.9 8.3 6.5 2.4 13.5 6.4 15.4 8.7 1.1 1.5 1.1 1.6-.7.8-1.1-.5-6.5-2.4-12-4.3-8.8-3.1-11.4-3.6-21.5-3.8-13.2-.4-26.2 2.1-37.5 7.1-1.6.8-6.1 2.5-10 3.8-13.4 4.7-28.7 2.8-42-5.1C26.7 193.7 15 182.9 15 181c0-.5 2.6 1.6 5.8 4.8 6.6 6.5 12.8 10.1 22.6 13.1 3.8 1.2 7 2.1 7.3 2.1 1.2 0-1-7.8-3.4-12.2-4.8-8.7-14.4-16.7-31.8-26.3-3.8-2.1-8.3-4.7-9.8-5.8-3.3-2.3-3.4-2.2-4.2 2.2-.3 1.9-.9 3.9-1.2 4.4-.4.6-.1.7.6.2 1-.6 1.1-.3.2 1.3-1.4 2.7-1.4 3.5.1 2.6.6-.4.8-.3.5.3-1.1 1.7 1.1 11.4 3.9 17 5.2 10.8 15.7 17.8 31.9 21.3 13.2 2.8 18.5 4.3 18.5 5 0 .9-3.9 2.7-11 5.1-7 2.5-10.1 3.1-17.7 3.3-9.4.4-9.6-1-.3-1.7 9.7-.6 11.2-1.6 7.4-4.6-3.5-2.8-8.3-4-18.5-4.6-4.7-.3-9.9-.9-11.6-1.4-3.9-1.1-4.7-.5-2.5 1.8.9 1 2.9 3.4 4.5 5.4 5.7 7.5 15.5 10.7 25.6 8.6 9-1.9 30.5-8.1 39.6-11.4 24-8.8 36.6-10.2 50.9-5.6 20.8 6.7 27.5 31.1 14 50.8-4.7 6.8-14.7 16.1-21.1 19.5-4.5 2.4-20.3 6.3-33.5 8.3-1.5.2-5.5.9-9 1.6-3.5.6-7.6 1.3-9.3 1.5-5.7.8-7.6 1.5-7 2.4.4.6 35.2 1 91.7 1 50 0 91.4.3 91.9.6s.9.2.9-.3c0-.4 2-.7 4.5-.5 3.5.3 4.5.1 4.5-1.1 0-1.8-1.6-3-4.5-3.4-12-1.8-44.8-7.6-47.5-8.5-9-2.8-17-12.7-17-21.1 0-5 2.6-14.9 5.2-20.1 6.2-12.3 18.5-23 31.4-27.2 6.3-2 25.1-2.7 34.4-1.1 12.8 2.1 16.6 3 19 4.7 3.9 2.8 13.7 5.8 18 5.5 5.5-.3 12.1-3.8 16.9-9l4.2-4.5h-2.7c-1.5 0-6.6-.7-11.3-1.6-4.7-.9-10.8-1.4-13.6-1.2-5.3.5-10.6 2.6-11.2 4.5-.5 1.5 15.1 5.1 20.8 4.7 3.5-.2 4-.1 2.5.8-2.8 1.6-13 .2-24.1-3.2-16.9-5.2-26.2-8-27-8-2.6 0-8.5-2.2-8-3 .3-.4 2.7-2.1 5.3-3.6 4-2.3 6-2.7 13.7-3 22.6-.6 37.1-13.8 44.4-40.5l2-6.9-4.2 2.4c-2.3 1.3-8.2 3.6-13.2 5.1-13.7 4.1-17.3 5.3-23.4 8.2-7.1 3.4-14.3 10.5-15.9 15.9-1.4 4.9-1.5 7.4-.3 7.4 2.1 0 25.5-11 30.4-14.3 1.5-1 2.7-1.4 2.7-.9 0 1.2-18.4 12.1-30.7 18.1-12.6 6.3-24.9 11.4-39.2 16.3-6.3 2.1-12.7 4.6-14.2 5.5-1.6.9-4.3 4.4-6 7.7-1.8 3.3-3.4 5.6-3.6 5-.6-1.7 4.5-16 8.4-23.9 5.9-11.6 12.3-20.4 22.8-31.1l10-10.1 8-1.3c22.6-3.5 29.7-12.5 32.1-41l.6-7.5-2.8 2.9c-1.6 1.6-5.4 4-8.4 5.4-3 1.3-8.2 3.7-11.5 5.2-10.6 4.8-17.6 14.3-18.8 25.4-.4 3.2-.2 3.5 1.9 3.4 1.3-.1 2.4-.6 2.4-1s.8-.8 1.8-.8 5.2-2 9.5-4.4c4.2-2.4 7.7-4.1 7.7-3.8-.1.9-6.8 5.1-15.3 9.6-8.4 4.4-19.8 11.8-25.3 16.2-2.3 1.9-4.4 3.4-4.8 3.4-1.5 0 .8-8.8 3.4-12.5 3.5-5.1 4.2-7.5 4.2-13.6-.1-4.8-3.1-12.9-6.5-17.3-1.4-1.9-1.6-1.8-4.2 2.4-6.8 10.8-8.3 18.3-5.1 25.2 3.1 6.5 4.3 6.6 6 .7.9-2.9 1.6-6.1 1.6-7 0-1 .5-2.1 1.2-2.5.6-.4.9-.3.6.2-.3.5-.9 3.4-1.2 6.4-1.5 12.7-5.7 24-11.4 30.9-2 2.4-6.4 8.5-9.7 13.4-3.3 5-6.5 9.2-7.1 9.4-1.6.5-14.8-12.8-17.7-17.9-1.4-2.4-3.1-7.2-3.7-10.8-1.3-6.9-1.6-23.4-.7-31 1.6-12.8 1.8-13.4 6.6-18.6 11.6-12.6 15.2-28.5 10.5-45.4-1.6-6-6.5-19-7.1-19-.1 0-.3.9-.3 2z"/><path d="M118.5 75.1c-.5.7-1 4.3-1.2 7.9-.3 7.9 1.8 13 7.2 17.9 2 1.8 4.8 5.7 6.1 8.5 4.7 10.3 2.1 1.2-4.5-15.7-.6-1.5-.7-2.7-.3-2.7.7 0 2.5 3.7 3.7 7.9.7 2.2.8 2.3 1.7.6.6-.9.8-3.8.4-6.3-.6-4.8-2.9-8.7-8.9-15.6-2.6-3.1-3.6-3.6-4.2-2.5zM201.8 83.2c-.2.6-4.2 3.4-8.8 6.2-5.9 3.7-9.5 6.6-12 10.1-3.4 4.8-3.5 5.2-3.6 14.5-.1 5.2-.4 12.6-.8 16.5l-.6 7 2.4-7.7c2.8-9.2 8.5-21.3 11.5-24.8 2.1-2.3 2.1-2.1-.3 2.1-3.2 5.9-6.8 15-6.1 15.7 1.2 1.3 8.6-3.4 11.2-7.2 3.8-5.4 5.1-8.6 6.7-16 1.8-9 2.2-21.8.4-16.4zM89.9 95.2c-.4 12.6.1 18 1.9 22.2 1.9 4.2 7.7 9.5 9 8.2.5-.6-.7-9.3-2.3-16.6l-.6-2.5 1.4 2.5c1.5 2.6 3.8 11.2 4.2 15.9.5 5.1 3.8 17.7 5.6 21.6 1.6 3.3 7.4 8.3 8.5 7.3.1-.2-1.1-2.6-2.8-5.2-1.6-2.7-4.1-7.9-5.5-11.5-2.1-5.4-2.4-7.6-1.8-12.1 1-8.9.6-13.2-2-18.6-2.5-5-7.5-10.8-12.7-14.6L90 89.9l-.1 5.3zM227.8 92.9c-8.5 5.4-13.1 11.8-12.9 18 .1 2 .1 7.8.2 12.9 0 5.4.5 9 1 8.6.5-.3.7-.9.4-1.4-.3-.5.1-2.8.9-5.2.8-2.4 2.2-6.9 3.1-10.1 1-3.2 2.1-6 2.5-6.2.8-.5-1.4 7.7-2.5 9.5-1.5 2.4 2.1.7 5-2.4 3-3.2 4.9-8.2 5.9-15.1.3-1.7.7-4.9 1.1-7.3.4-2.3.5-4.2.3-4.2s-2.5 1.3-5 2.9zM118.6 114.7c-1 2.7-2 8.5-2.3 12.9-.5 7.5-.3 8.5 2.1 13 1.5 2.7 4 5.8 5.6 6.9 1.6 1.1 3.8 3.5 4.9 5.5 2.1 3.8 8.1 11.7 8.1 10.7 0-.3-1.3-3.4-3-7-3.6-7.8-9.2-22.8-8.7-23.4.2-.2 2.1 3.4 4.2 7.9l3.8 8.3.9-3.5c1.4-5 .1-13.2-3.1-19.3-3.9-7.3-9.5-16.6-10.1-16.7-.3 0-1.4 2.1-2.4 4.7zM30.6 137.8c-.2.4.4 2.6 1.4 4.8 2.8 6.5 7.9 10.5 15 11.8l3.5.7-4.8-4.6c-2.7-2.6-4.7-4.9-4.5-5.1.2-.1 2.6 1.5 5.3 3.7 4.6 3.7 18.5 11.5 18.5 10.4 0-.2-2.5-2-5.5-3.9-3.5-2.3-5.9-4.7-6.8-6.9-1.7-4-6.5-8.2-10.9-9.6-4.9-1.5-10.6-2.2-11.2-1.3zM164.5 144.2c-2 7.3-2.5 14-1.2 19 1 4.1 7.5 12.3 7.8 9.8 0-.8.2-3.8.2-6.7.3-6.7 1.3-7.7 1.6-1.5.2 2.6.4 6 .5 7.7.1 1.6-.1 4.7-.5 6.7-.3 2.1-.5 3.8-.2 3.8.7 0 2.3-5.2 2.8-8.7.2-1.9.9-4.1 1.5-4.8 2-2.5 2.8-7.3 1.9-11.5-.8-3.7-10.5-19.8-12-19.9-.4-.1-1.4 2.7-2.4 6.1zM76 157.7c0 .1.7 2.2 1.7 4.5 2.3 6.1 5.8 10.5 10.2 12.7 3.7 1.9 5.7 2.3 17.1 3.5l5.5.6-5.5-1.8c-6.4-2.2-13.6-5.7-14.5-7.2-.3-.6 1.5.1 4.1 1.5 6 3.2 6.6 3.1 5.2-.3-1.7-3.8-4.8-7.1-8.3-8.6-3.6-1.6-15.5-5.4-15.5-4.9zM41.6 164.1c1.6 9.2 8.6 18.4 17.1 22.7 3.9 2 4.3 2.1 23.8.9 13.6-.8 16.5-2.5 4.5-2.7-14.5-.2-21-1.5-26.9-5.6-4.3-2.9-3.4-3.1 1.7-.5 2.1 1.1 6.1 2.4 9 2.9 4.4.8 5.2.7 5.2-.6 0-2.8-8.4-9.7-15.1-12.4-3.5-1.4-8.9-3.6-11.9-4.8-3-1.2-6.1-2.4-6.7-2.7-1-.4-1.1.4-.7 2.8zM234 165.4c-1.4.8-5.2 2.5-8.4 3.8-6.3 2.5-9.6 5.8-10 10.2l-.3 2.6 3.2-1.9c1.7-1 4.5-2.7 6-3.7 1.7-1.1 2.6-1.3 2.1-.6-.5.8-4.9 4.1-10 7.4-8.2 5.4-8.8 6.9-1.2 3.1 1.6-.8 5-2.1 7.7-2.9 7.9-2.4 13.1-7.9 15-16.2.8-3.6-.1-4-4.1-1.8zM77.5 219.6c-2.7 2-6.7 5.2-8.7 7.2-5 4.8-4.8 2.9.2-2.6 2.2-2.4 4-4.5 4-4.7 0-.5-7.3 2-9.9 3.4-2.5 1.4-5.4 6.1-8.9 14.7l-2.8 7 6.9-1.8c7.9-2.1 11.5-3.8 13.9-6.5 2.3-2.5 4.8-8.6 4.8-11.7 0-1.6 1.3-3.5 3.8-5.5 5.1-4.1 2.9-3.8-3.3.5zM226 217c0 .6.8 1 1.8 1 5.5 0 30.2 8.3 30.2 10.2 0 1.1-1.7 1-2.5-.2-.8-1.3-14.3-5.5-15.1-4.7-2.5 2.4 4.3 10.8 11.4 13.9 4.8 2.2 16.3 2.9 23.3 1.5l3.6-.7-8.6-8.9c-12-12.3-12.7-12.6-28.6-11.9-1.6 0-5.8-.2-9.2-.5-3.9-.4-6.3-.3-6.3.3z"/></svg>